<svg xmlns="http://www.w3.org/2000/svg" viewBox="0 0 250 100">
  <path fill="#1a56db" d="M50 0h25v25h-25v25h25v25h-25V0z"/>
  <path fill="#1a56db" d="M0 25h50v25H0v25h50V25H0z"/>
  <path fill="#1a56db" d="M75 0h25v25h-25v25h25v25h-25V0z"/>
  <path fill="#1a56db" d="M100 0h25v25h-25v25h25v25h-25V0z"/>
  <path fill="#1a56db" d="M125 0h25v25h-25v25h25v25h-25V0z"/>
  <path fill="#1a56db" d="M0 75h25v25H0z"/>
  <path fill="#1a56db" d="M25 75h25v25H25z"/>
  <path fill="#06b6d4" d="M150 25c0-13.8 11.2-25 25-25s25 11.2 25 25v50c0 13.8-11.2 25-25 25s-25-11.2-25-25V25z"/>
  <path fill="#1e40af" d="M87.5 25h25v50h-25V25z"/>
  <path fill="#1a56db" d="M87.5 25h25v12.5h-25V25z"/>
  <path fill="#1a56db" d="M87.5 62.5h25v12.5h-25V62.5z"/>
  <path fill="#1a56db" d="M187.5 12.5c-13.8 0-25 11.2-25 25s11.2 25 25 25 25-11.2 25-25-11.2-25-25-25z"/>
  <path fill="#1a56db" d="M150 75c0 13.8 11.2 25 25 25s25-11.2 25-25V50c0-13.8-11.2-25-25-25s-25 11.2-25 25v25z"/>
  <path fill="#1a56db" d="M225 25c0-13.8-11.2-25-25-25s-25 11.2-25 25v50c0 13.8 11.2 25 25 25s25-11.2 25-25V25z"/>
  <path fill="#ffffff" d="M165 37.5c0-6.9 5.6-12.5 12.5-12.5s12.5 5.6 12.5 12.5v25c0 6.9-5.6 12.5-12.5 12.5s-12.5-5.6-12.5-12.5V37.5z"/>
  <path fill="#3b82f6" d="M150 25c0-13.8 11.2-25 25-25s25 11.2 25 25v50c0 13.8-11.2 25-25 25s-25-11.2-25-25V25z"/>
  <path fill="#60a5fa" d="M150 25c0-13.8 11.2-25 25-25s25 11.2 25 25v50c0 13.8-11.2 25-25 25s-25-11.2-25-25V25z" opacity="0.5"/>
</svg>